<?xml version="1.0" encoding="iso-8859-1"?>
<!-- Generator: Adobe Illustrator 19.0.0, SVG Export Plug-In . SVG Version: 6.00 Build 0)  -->
<svg xmlns="http://www.w3.org/2000/svg" xmlns:xlink="http://www.w3.org/1999/xlink" version="1.1" id="Layer_1" x="0px" y="0px" viewBox="0 0 512 512" style="enable-background:new 0 0 512 512;" xml:space="preserve" width="512" height="512">
<polygon style="fill-rule:evenodd;clip-rule:evenodd;fill:#EDEDED;" points="61.6,500.915 450.4,500.915 295.827,325.074   253.691,325.074 211.555,325.074 "/>
<path style="fill-rule:evenodd;clip-rule:evenodd;fill:#7AC943;" d="M333.173,101.625c-8.755,1.105-17.681-6.485-20.969-14.02  c-4.448-11.158-15.556-17.388-25.927-15.15c-1.814,0.142-3.627,0.029-5.384-0.197c-7.736-1.134-14.451-5.495-16.52-9.318  l-1.785-0.99l-9.124,16.198l-9.351-16.595l-1.785,1.018c-2.069,3.824-8.813,8.186-16.549,9.29c-1.756,0.255-3.542,0.341-5.355,0.228  c-10.399-2.268-21.479,3.965-25.928,15.151c-3.287,7.504-12.241,15.123-20.968,13.99l-17.625-31.294H30.062  c-10.995,0-19.977,8.977-19.977,19.965v145.256c0,10.989,8.982,19.994,19.977,19.994H61.6h388.8h31.509  c10.995,0,20.005-9.005,20.005-19.994V89.9c0-10.988-9.011-19.965-20.005-19.965H350.997L333.173,101.625z"/>
<path style="fill-rule:evenodd;clip-rule:evenodd;fill:#EDEDED;" d="M244.113,61.553l-28.392-50.468  c2.579,4.7-9.606,14.018-22.216,13.168c-10.399-2.265-21.479,3.993-25.927,15.151c-3.684,8.384-15.33,13.596-21.932,12.319  l10.258,18.212l17.625,31.294c8.727,1.133,17.682-6.486,20.968-13.99c4.449-11.187,15.528-17.419,25.928-15.151  c1.814,0.113,3.599,0.027,5.355-0.228c7.736-1.104,14.48-5.466,16.549-9.29L244.113,61.553z"/>
<path style="fill-rule:evenodd;clip-rule:evenodd;fill:#B3B3B3;" d="M361.027,52.093c-6.574,1.304-18.247-3.937-21.903-12.32  c-4.449-11.157-15.557-17.388-25.928-15.151c-12.609,0.85-24.794-8.468-22.215-13.168l-28.393,50.496l1.785,0.99  c2.069,3.823,8.784,8.184,16.52,9.318c1.757,0.227,3.57,0.339,5.384,0.197c10.371-2.237,21.479,3.992,25.927,15.15  c3.288,7.534,12.214,15.125,20.969,14.02l17.824-31.689L361.027,52.093z"/>
<polygon style="fill-rule:evenodd;clip-rule:evenodd;fill:#FFA21F;" points="61.6,417.993 61.6,255.15 30.062,255.15   30.062,500.915 61.6,500.915 "/>
<polygon style="fill-rule:evenodd;clip-rule:evenodd;fill:#FFA21F;" points="481.91,500.915 481.91,255.15 450.4,255.15   450.4,417.993 450.4,500.915 "/>
<g>
	<path d="M255.73,265.235h0.255c5.57,0,10.085-4.516,10.085-10.085s-4.515-10.084-10.085-10.084h-0.255   c-5.57,0-10.085,4.515-10.085,10.084S250.161,265.235,255.73,265.235z"/>
	<path d="M76.625,203.284c2.247,0,4.148-0.793,5.703-2.38c1.553-1.586,2.33-3.469,2.33-5.65v-21.311h15.273   c2.182,0,4-0.709,5.455-2.131c1.453-1.421,2.182-3.122,2.182-5.105c0-2.048-0.744-3.782-2.231-5.204   c-1.488-1.42-3.29-2.131-5.405-2.131H84.658v-13.977h18.05c2.049,0,3.769-0.727,5.157-2.181c1.389-1.453,2.083-3.138,2.083-5.055   c0-2.115-0.711-3.882-2.132-5.304c-1.423-1.42-3.124-2.131-5.108-2.131H76.725c-2.315,0-4.265,0.827-5.852,2.478   c-1.587,1.653-2.38,3.568-2.38,5.749v56.301c0,2.182,0.826,4.064,2.479,5.65C72.624,202.491,74.508,203.284,76.625,203.284z"/>
	<path d="M139.034,203.086c2.247,0,4.148-0.778,5.703-2.33c1.553-1.552,2.331-3.419,2.331-5.6v-56.995   c0-2.247-0.778-4.179-2.331-5.799c-1.554-1.619-3.421-2.429-5.603-2.429c-2.182,0-4.084,0.843-5.703,2.528   c-1.621,1.685-2.43,3.584-2.43,5.699v56.895c0,2.247,0.776,4.148,2.33,5.699C134.884,202.308,136.786,203.086,139.034,203.086z"/>
	<path d="M180.793,203.086c2.247,0,4.131-0.761,5.653-2.281c1.52-1.519,2.281-3.401,2.281-5.648l-0.297-36.775l32.034,41.235   c1.851,2.313,3.967,3.47,6.348,3.47c2.313,0,4.248-0.744,5.801-2.23c1.553-1.487,2.331-3.386,2.331-5.699v-57.193   c0-1.19-0.199-2.246-0.595-3.172c-0.396-0.925-0.959-1.785-1.686-2.577c-1.587-1.587-3.471-2.379-5.653-2.379   c-2.182,0-4.066,0.826-5.652,2.478c-1.587,1.652-2.381,3.535-2.381,5.65l0.298,36.774L187.239,133.7   c-1.919-2.511-4.101-3.767-6.546-3.767c-2.248,0-4.15,0.793-5.703,2.379c-1.554,1.586-2.33,3.535-2.33,5.849v56.599   c0,2.379,0.826,4.36,2.479,5.947C176.791,202.293,178.676,203.086,180.793,203.086z"/>
	<path d="M269.961,203.086c2.248,0,4.148-0.778,5.703-2.33c1.553-1.552,2.331-3.419,2.331-5.6v-56.995   c0-2.247-0.778-4.179-2.331-5.799c-1.554-1.619-3.421-2.429-5.603-2.429c-2.182,0-4.083,0.843-5.703,2.528   c-1.621,1.685-2.43,3.584-2.43,5.699v56.895c0,2.247,0.776,4.148,2.33,5.699C265.811,202.308,267.713,203.086,269.961,203.086z"/>
	<path d="M308.352,200.112c4.496,2.113,10.116,3.172,16.86,3.172c8.264,0,14.892-2.197,19.885-6.592   c4.991-4.394,7.488-10.093,7.488-17.099c0-7.467-2.943-12.984-8.827-16.554c-3.109-1.981-7.803-3.832-14.083-5.551   c-4.828-1.388-7.736-2.443-8.728-3.172c-1.389-1.123-2.082-2.345-2.082-3.668c0-1.717,0.776-3.154,2.331-4.311   c1.553-1.156,3.454-1.735,5.703-1.735c1.322,0,3.206,0.331,5.653,0.991l2.876,0.991c2.38,0.793,4.131,1.189,5.256,1.189   c1.984,0,3.653-0.744,5.009-2.23c1.354-1.486,2.033-3.254,2.033-5.303c0-3.039-1.869-5.566-5.603-7.582   c-3.736-2.016-8.38-3.024-13.934-3.024c-7.604,0-13.885,2.115-18.844,6.343c-4.958,4.23-7.438,9.615-7.438,16.157   c0,6.477,2.445,11.301,7.339,14.473c2.512,1.651,7.141,3.436,13.885,5.353c4.363,1.321,7.272,2.313,8.727,2.974   c1.454,0.66,2.446,1.453,2.975,2.379c0.529,0.925,0.794,2.016,0.794,3.27c0,2.247-0.927,4.063-2.777,5.452   c-1.852,1.387-4.133,2.081-6.844,2.081c-2.712,0-6.183-0.759-10.413-2.279c-3.506-1.255-5.852-1.885-7.041-1.885   c-1.984,0-3.637,0.729-4.959,2.182c-1.324,1.454-1.983,3.271-1.983,5.452v0.495C301.609,195.321,303.855,197.998,308.352,200.112z"/>
	<path d="M384.077,203.185c2.247,0,4.131-0.777,5.653-2.329c1.52-1.552,2.281-3.452,2.281-5.699v-22.204h30.348v22.204   c0,2.247,0.777,4.147,2.331,5.699c1.553,1.552,3.454,2.329,5.703,2.329c2.247,0,4.148-0.81,5.703-2.429   c1.553-1.618,2.331-3.484,2.331-5.6v-56.995c0-2.313-0.793-4.263-2.38-5.849c-1.587-1.586-3.472-2.379-5.653-2.379   c-2.117,0-3.984,0.843-5.603,2.528c-1.621,1.685-2.43,3.584-2.43,5.699v20.22h-30.348v-20.22c0-2.247-0.778-4.179-2.331-5.799   c-1.554-1.619-3.421-2.429-5.604-2.429c-2.182,0-4.083,0.843-5.702,2.528c-1.621,1.685-2.43,3.584-2.43,5.699v56.995   c0,2.247,0.793,4.147,2.38,5.699C379.912,202.407,381.829,203.185,384.077,203.185z"/>
	<path d="M481.91,59.851H368.235l1.582-2.814c1.93-3.433,1.699-7.676-0.611-10.863c-2.31-3.189-6.252-4.744-10.114-3.977   c-0.001,0-0.075,0.011-0.229,0.011c-3.004,0-8.831-2.844-10.451-6.367c-5.282-13.022-17.699-21.756-30.964-21.756   c-1.842,0-3.685,0.168-5.49,0.501c-0.129,0.004-0.258,0.005-0.387,0.005c-0.001,0-0.002,0-0.002,0   c-4.584,0-8.615-2.053-10.509-3.507c-0.129-3.409-1.984-6.669-5.182-8.445c-4.689-2.603-10.551-1.065-13.395,3.407   c-0.092,0.13-0.187,0.276-0.292,0.462l-28.747,51.078l-0.492-0.874c-0.019-0.034-0.033-0.069-0.052-0.104L224.51,6.14   c-0.001-0.002-0.003-0.004-0.004-0.006c-0.102-0.181-0.204-0.338-0.305-0.483c-2.85-4.453-8.697-5.982-13.378-3.381   c-3.198,1.776-5.054,5.036-5.182,8.445c-1.946,1.495-6.163,3.638-10.891,3.502c-1.82-0.337-3.678-0.509-5.535-0.509   c-13.235,0-25.633,8.728-30.92,21.746c-1.642,3.529-7.497,6.377-10.512,6.377c-0.159-0.001-0.235-0.014-0.228-0.009   c-3.855-0.744-7.796,0.819-10.094,4.006c-2.297,3.188-2.533,7.421-0.605,10.845l1.79,3.178H30.062C13.485,59.851,0,73.331,0,89.9   v145.256c0,13.047,8.347,24.176,19.977,28.332v237.427c0,5.569,4.515,10.085,10.085,10.085H61.6h388.8h31.509   c5.57,0,10.085-4.516,10.085-10.085V263.491C503.64,259.338,512,248.207,512,235.156V89.9C512,73.331,498.501,59.851,481.91,59.851   z M292.408,29.491c5.593,3.253,12.503,5.269,19.16,5.269c0,0,0.001,0,0.002,0c0.769,0,1.544-0.026,2.304-0.077   c0.487-0.033,0.971-0.101,1.448-0.204c0.692-0.149,1.407-0.225,2.126-0.225c5.155,0,10.102,3.719,12.309,9.254   c0.04,0.1,0.081,0.198,0.123,0.296c3.015,6.915,9.065,12.175,15.634,15.302l-17.666,31.412c-2.549-1.441-5.112-4.079-6.352-6.832   c-5.278-13.027-17.698-21.767-30.966-21.767c-1.858,0-3.715,0.171-5.535,0.508c-0.822,0.024-1.679-0.029-2.724-0.16   c-2.832-0.428-5.241-1.494-6.889-2.498L292.408,29.491z M176.81,43.46c0.046-0.106,0.091-0.213,0.134-0.321   c2.209-5.539,7.141-9.262,12.271-9.262c0.724,0,1.444,0.078,2.143,0.229c0.483,0.105,0.974,0.175,1.468,0.208   c7.332,0.492,15.229-1.563,21.47-5.191l17.023,30.266c-1.666,1.01-4.111,2.081-6.987,2.492c-0.907,0.132-1.799,0.185-2.684,0.168   c-1.818-0.337-3.673-0.508-5.527-0.508c-13.244,0-25.641,8.74-30.914,21.771c-1.245,2.751-3.808,5.386-6.352,6.823l-14.076-24.992   c-0.009-0.015-0.018-0.029-0.025-0.045l-3.591-6.374C167.728,55.602,173.781,50.355,176.81,43.46z M20.17,89.9   c0-5.448,4.438-9.881,9.892-9.881h119.945l14.734,26.159c1.56,2.77,4.335,4.642,7.488,5.051c1.004,0.131,2.032,0.197,3.055,0.197   c12.886,0,24.066-10.133,28.45-20.142c0.046-0.106,0.091-0.213,0.133-0.319c2.202-5.536,7.126-9.256,12.252-9.256   c0.728,0,1.453,0.078,2.156,0.231c0.501,0.109,1.009,0.18,1.52,0.211c2.449,0.153,4.959,0.046,7.408-0.308   c4.98-0.711,9.855-2.469,13.996-4.888l0.671,1.193l-8.786,15.61c-2.731,4.854-1.011,11.003,3.843,13.735   c1.563,0.88,3.261,1.298,4.936,1.298c3.524,0,6.946-1.85,8.798-5.14l2.777-4.936l2.568,4.565c1.852,3.292,5.274,5.143,8.799,5.143   c1.674,0,3.372-0.418,4.935-1.296c4.854-2.73,6.576-8.88,3.846-13.734l-8.574-15.243l0.467-0.831   c4.127,2.421,8.987,4.187,13.949,4.913c0.058,0.009,0.115,0.017,0.172,0.023c2.718,0.352,5.14,0.429,7.459,0.25   c0.451-0.035,0.899-0.101,1.342-0.196c0.693-0.149,1.408-0.226,2.127-0.226c5.154,0,10.099,3.719,12.306,9.253   c0.04,0.101,0.082,0.2,0.125,0.3c4.376,10.027,15.565,20.179,28.484,20.178c1.001,0,2.007-0.063,2.992-0.188   c3.168-0.4,5.96-2.278,7.525-5.062l14.93-26.549H481.91c5.47,0,9.92,4.433,9.92,9.881v145.256c0,5.464-4.45,9.91-9.92,9.91H295.827   c-5.569,0-10.085,4.515-10.085,10.084s4.516,10.085,10.085,10.085h144.489v208.934L303.401,318.416   c-1.915-2.178-4.675-3.427-7.575-3.427h-84.272c-2.952,0-5.757,1.294-7.673,3.541L71.685,473.548V265.235h139.87   c5.57,0,10.085-4.516,10.085-10.085s-4.515-10.084-10.085-10.084H30.062c-5.455,0-9.892-4.446-9.892-9.91V89.9z M40.147,490.831   V265.235h11.369v225.596H40.147z M83.454,490.831l132.754-155.673h27.398v25.855c0,5.569,4.515,10.084,10.085,10.084   s10.085-4.515,10.085-10.084v-25.855h27.489l136.844,155.673H83.454z M460.485,490.831V265.235h11.34v225.596H460.485z"/>
	<path d="M255.929,419.86c-5.57,0-10.085,4.515-10.085,10.085v34.805c0,5.569,4.515,10.085,10.085,10.085   c5.57,0,10.085-4.516,10.085-10.085v-34.805C266.014,424.375,261.499,419.86,255.929,419.86z"/>
</g>















</svg>
